<svg width="960" height="600" xmlns="http://www.w3.org/2000/svg"><g text-anchor="middle" font-family="Impact"><text transform="rotate(30 -473.738 1275.51) scale(1.2245)" font-size="100" fill="#6B6ECF">error</text><text transform="rotate(-60 558.803 -416.855) scale(1.2245)" font-size="10" fill="#9C9EDE">viga</text><text transform="rotate(60 -206.328 529.16) scale(1.2245)" font-size="10" fill="#637939">σφάλμα</text><text transform="rotate(-30 935.468 -146.077) scale(1.2245)" font-size="10" fill="#8CA252">အမှား</text><text transform="rotate(30 -139.022 1354.802) scale(1.2245)" font-size="28" fill="#B5CF6B">памылка</text><text transform="rotate(60 -55.804 258.446) scale(1.2245)" font-size="10" fill="#CEDB9C">səhv</text><text transform="rotate(30 -198.202 1179.64) scale(1.2245)" font-size="37" fill="#8C6D31">ভুল</text><text transform="rotate(30 -523.734 1134.62) scale(1.2245)" font-size="46" fill="#BD9E39">sayop</text><text transform="rotate(60 -132.04 532.93) scale(1.2245)" font-size="28" fill="#E7BA52">pogreška</text><text transform="rotate(60 43.846 739.616) scale(1.2245)" font-size="46" fill="#E7CB94">错误</text><text transform="rotate(60 -35.205 382.29) scale(1.2245)" font-size="10" fill="#843C39">fejl</text><text transform="rotate(-60 679.538 -243.932) scale(1.2245)" font-size="10" fill="#AD494A">fout</text><text transform="rotate(-30 1035.744 -410.636) scale(1.2245)" font-size="10" fill="#D6616B">virhe</text><text transform="rotate(30 -499.444 804.846) scale(1.2245)" font-size="10" fill="#E7969C">hiba</text><text transform="matrix(1.2245 0 0 1.2245 303.673 454.286)" font-size="10" fill="#7B4173">kesalahan</text><text transform="rotate(-60 551.283 10.05) scale(1.2245)" font-size="10" fill="#A55194">napaka</text><text transform="rotate(30 -599.913 1142.787) scale(1.2245)" font-size="28" fill="#CE6DBD">Fehler</text><text transform="rotate(-60 767.953 -419.113) scale(1.2245)" font-size="10" fill="#DE9ED6">fel</text><text transform="rotate(-60 529.846 -565.067) scale(1.2245)" font-size="10" fill="#393B79">hapa</text><text transform="matrix(1.2245 0 0 1.2245 761.633 199.592)" font-size="10" fill="#5254A3">שְׁגִיאָה</text><text transform="rotate(30 -371.708 586.946) scale(1.2245)" font-size="10" fill="#6B6ECF">алдаа</text><text transform="rotate(-60 369.502 -233.466) scale(1.2245)" font-size="46" fill="#9C9EDE">errore</text><text transform="rotate(-60 507.635 -249.862) scale(1.2245)" font-size="37" fill="#637939">villa</text><text transform="rotate(-30 708.65 -716.24) scale(1.2245)" font-size="55" fill="#8CA252">ошибка</text><text transform="rotate(60 18.128 557.93) scale(1.2245)" font-size="10" fill="#B5CF6B">eroare</text><text transform="rotate(-60 535.807 -198.25) scale(1.2245)" font-size="10" fill="#CEDB9C">טעות</text><text transform="rotate(60 -170.173 564.843) scale(1.2245)" font-size="10" fill="#8C6D31">kasalahan</text><text transform="rotate(30 -309.194 619.175) scale(1.2245)" font-size="10" fill="#BD9E39">Erreur</text><text transform="rotate(-30 702.133 -362.884) scale(1.2245)" font-size="37" fill="#E7BA52">хатогӣ</text></g></svg>